<svg width="369" height="670" viewBox="0 0 369 670" fill="none" xmlns="http://www.w3.org/2000/svg">
<path d="M0.624067 124.225C0.662263 125.053 1.36505 125.694 2.19379 125.656L15.6988 125.034C16.5276 124.995 17.1684 124.293 17.1302 123.464C17.092 122.635 16.3892 121.994 15.5605 122.032L3.55603 122.586L3.00274 110.581C2.96454 109.752 2.26176 109.112 1.43302 109.15C0.604285 109.188 -0.0365736 109.891 0.00162262 110.72L0.624067 124.225ZM173.871 4.4841L174.085 5.97091L173.871 4.4841ZM327.591 46.0436L328.566 44.9009L327.591 46.0436ZM345.617 311.424L347.118 311.379L345.617 311.424ZM345.617 519.722L346.982 520.349L345.617 519.722ZM151.472 662.309C151.13 663.065 151.466 663.954 152.222 664.296L164.54 669.866C165.296 670.208 166.186 669.872 166.528 669.116C166.87 668.361 166.534 667.471 165.778 667.129L154.828 662.178L159.779 651.228C160.121 650.472 159.785 649.582 159.029 649.24C158.274 648.898 157.384 649.234 157.042 649.99L151.472 662.309ZM2.12463 124.155C3.23459 125.168 3.23481 125.167 3.23542 125.167C3.23612 125.166 3.23711 125.165 3.23852 125.163C3.24135 125.16 3.24568 125.155 3.25153 125.149C3.26321 125.136 3.28092 125.117 3.30458 125.091C3.35191 125.039 3.42307 124.962 3.51758 124.859C3.7066 124.654 3.989 124.349 4.36091 123.949C5.10473 123.15 6.20654 121.975 7.63528 120.475C10.4928 117.475 14.6577 113.175 19.8816 107.982C30.3307 97.5943 45.01 83.6382 61.9332 69.3616C78.8602 55.0818 98.0087 40.5013 117.397 28.8507C136.805 17.1884 156.35 8.52538 174.085 5.97091L173.657 2.99729C155.348 5.63439 135.402 14.5261 115.849 26.2756C96.277 38.0368 76.9945 52.7251 59.996 67.0653C42.9937 81.4086 28.253 95.4235 17.7635 105.852C12.5181 111.066 8.334 115.386 5.45992 118.403C4.02284 119.912 2.91316 121.095 2.16195 121.902C1.78635 122.305 1.50035 122.615 1.30784 122.824C1.21159 122.928 1.13871 123.008 1.08968 123.061C1.06517 123.088 1.04662 123.108 1.0341 123.122C1.02784 123.129 1.02308 123.134 1.01984 123.138C1.01822 123.139 1.01693 123.141 1.01612 123.142C1.0152 123.143 1.01467 123.143 2.12463 124.155ZM174.085 5.97091C204.732 1.55669 231.123 1.8693 255.695 8.25672C280.257 14.6417 303.101 27.1225 326.616 47.1864L328.566 44.9009C304.774 24.6011 281.533 11.8693 256.45 5.34905C231.377 -1.16873 204.561 -1.45401 173.657 2.99729L174.085 5.97091ZM326.616 47.1864C346.142 63.8469 356.782 82.1063 361.855 101.728C366.938 121.389 366.455 142.502 363.587 164.89C360.713 187.316 355.484 210.801 351.128 235.374C346.784 259.887 343.337 285.357 344.115 311.469L347.118 311.379C346.35 285.576 349.754 260.344 354.087 235.898C358.409 211.513 363.682 187.784 366.567 165.272C369.456 142.722 369.986 121.172 364.764 100.976C359.532 80.7422 348.55 61.9521 328.566 44.9009L326.616 47.1864ZM344.115 311.469C344.724 331.888 347.158 350.52 349.926 368.11C352.7 385.733 355.792 402.219 357.757 418.519C361.675 451.023 361.062 482.466 344.252 519.096L346.982 520.349C364.1 483.047 364.698 450.995 360.74 418.16C358.767 401.791 355.649 385.146 352.894 367.643C350.134 350.106 347.721 331.615 347.118 311.379L344.115 311.469ZM344.252 519.096C324.905 561.253 277.087 596.856 233.806 621.989C212.209 634.53 191.828 644.417 176.844 651.168C169.353 654.544 163.214 657.134 158.95 658.88C156.819 659.753 155.156 660.414 154.027 660.857C153.463 661.079 153.032 661.245 152.743 661.357C152.599 661.412 152.49 661.454 152.417 661.481C152.381 661.495 152.354 661.505 152.336 661.512C152.327 661.516 152.321 661.518 152.316 661.52C152.314 661.521 152.313 661.521 152.312 661.522C152.311 661.522 152.31 661.522 152.841 662.927C153.371 664.333 153.372 664.333 153.373 664.332C153.374 664.332 153.376 664.331 153.379 664.33C153.384 664.328 153.391 664.325 153.401 664.322C153.42 664.314 153.449 664.303 153.487 664.289C153.562 664.26 153.674 664.217 153.822 664.161C154.117 664.047 154.554 663.878 155.125 663.654C156.266 663.206 157.943 662.539 160.089 661.66C164.381 659.903 170.552 657.299 178.078 653.908C193.128 647.126 213.606 637.193 235.314 624.587C278.642 599.427 327.213 563.427 346.982 520.349L344.252 519.096Z" fill="#FFAD26"/>
</svg>
