<svg width="12" height="13" viewBox="0 0 12 13" fill="none" xmlns="http://www.w3.org/2000/svg">
<path d="M11.9249 5.62638C11.8772 5.50358 11.8058 5.39139 11.7148 5.29625L6.71273 0.294211C6.61946 0.200935 6.50872 0.126944 6.38685 0.0764633C6.26498 0.0259825 6.13436 0 6.00244 0C5.73603 0 5.48053 0.105831 5.29215 0.294211C5.19888 0.387488 5.12489 0.498223 5.0744 0.620095C5.02392 0.741966 4.99794 0.872588 4.99794 1.0045C4.99794 1.27091 5.10377 1.52641 5.29215 1.71479L8.5935 5.00613H1.00041C0.735083 5.00613 0.480625 5.11153 0.293013 5.29914C0.1054 5.48675 0 5.74121 0 6.00654C0 6.27186 0.1054 6.52632 0.293013 6.71393C0.480625 6.90154 0.735083 7.00694 1.00041 7.00694H8.5935L5.29215 10.2983C5.19839 10.3913 5.12396 10.5019 5.07317 10.6238C5.02238 10.7457 4.99623 10.8765 4.99623 11.0086C4.99623 11.1406 5.02238 11.2714 5.07317 11.3933C5.12396 11.5152 5.19839 11.6259 5.29215 11.7189C5.38515 11.8126 5.4958 11.8871 5.61771 11.9378C5.73962 11.9886 5.87038 12.0148 6.00244 12.0148C6.13451 12.0148 6.26527 11.9886 6.38718 11.9378C6.50908 11.8871 6.61973 11.8126 6.71273 11.7189L11.7148 6.71682C11.8058 6.62168 11.8772 6.50949 11.9249 6.38669C12.0249 6.14313 12.0249 5.86994 11.9249 5.62638Z" fill="#FFAD26"/>
</svg>
