<svg width="11" height="7" viewBox="0 0 11 7" fill="none" xmlns="http://www.w3.org/2000/svg">
<path d="M10.7159 4.7439L6.22905 0.30937C6.13182 0.211341 6.01615 0.133534 5.8887 0.0804357C5.76125 0.0273377 5.62455 0 5.48648 0C5.34841 0 5.21171 0.0273377 5.08426 0.0804357C4.95681 0.133534 4.84113 0.211341 4.7439 0.30937L0.30937 4.7439C0.211341 4.84113 0.133533 4.95681 0.0804352 5.08426C0.0273372 5.21171 0 5.34841 0 5.48648C0 5.62455 0.0273372 5.76125 0.0804352 5.8887C0.133533 6.01615 0.211341 6.13182 0.30937 6.22905C0.505328 6.42385 0.770408 6.53319 1.04672 6.53319C1.32302 6.53319 1.5881 6.42385 1.78406 6.22905L5.48648 2.52664L9.18889 6.22905C9.3837 6.42227 9.64663 6.5312 9.92101 6.53236C10.0587 6.53315 10.1951 6.50677 10.3225 6.45472C10.45 6.40268 10.5659 6.32599 10.6636 6.22905C10.7651 6.13532 10.8471 6.0224 10.9047 5.89682C10.9623 5.77123 10.9945 5.63547 10.9994 5.49738C11.0042 5.35929 10.9817 5.2216 10.933 5.09227C10.8844 4.96294 10.8106 4.84454 10.7159 4.7439Z" fill="#948C74"/>
</svg>
