<svg width="8" height="14" viewBox="0 0 8 14" fill="none" xmlns="http://www.w3.org/2000/svg">
<path d="M7.66518 6.18328L1.77912 0.307613C1.68245 0.210141 1.56743 0.132775 1.4407 0.0799789C1.31398 0.0271825 1.17805 0 1.04076 0C0.90348 0 0.767554 0.0271825 0.640828 0.0799789C0.514101 0.132775 0.399083 0.210141 0.302407 0.307613C0.108717 0.502458 0 0.766033 0 1.04077C0 1.31551 0.108717 1.57908 0.302407 1.77393L5.45011 6.97363L0.302407 12.1213C0.108717 12.3162 0 12.5798 0 12.8545C0 13.1292 0.108717 13.3928 0.302407 13.5877C0.398721 13.6859 0.513577 13.7641 0.64032 13.8176C0.767063 13.8712 0.903173 13.8991 1.04076 13.8996C1.17836 13.8991 1.31447 13.8712 1.44121 13.8176C1.56795 13.7641 1.68281 13.6859 1.77912 13.5877L7.66518 7.71199C7.77074 7.61461 7.85499 7.49641 7.91261 7.36486C7.97023 7.23331 7.99998 7.09125 7.99998 6.94763C7.99998 6.80401 7.97023 6.66195 7.91261 6.5304C7.85499 6.39885 7.77074 6.28066 7.66518 6.18328Z" fill="white"/>
</svg>
