<svg width="20" height="21" viewBox="0 0 20 21" fill="none" xmlns="http://www.w3.org/2000/svg">
<path d="M13.7135 10.7685C14.6987 9.99332 15.4179 8.93035 15.7709 7.72745C16.1238 6.52456 16.0931 5.24155 15.683 4.05692C15.2728 2.8723 14.5036 1.84496 13.4824 1.11785C12.4612 0.390737 11.2388 0 9.98515 0C8.73153 0 7.50909 0.390737 6.48788 1.11785C5.46667 1.84496 4.69749 2.8723 4.28734 4.05692C3.87719 5.24155 3.84647 6.52456 4.19945 7.72745C4.55244 8.93035 5.27157 9.99332 6.25681 10.7685C4.56858 11.4448 3.09555 12.5667 1.99474 14.0144C0.893927 15.462 0.206611 17.1813 0.00606166 18.9889C-0.00845516 19.1209 0.00316394 19.2544 0.0402553 19.3819C0.0773467 19.5094 0.139184 19.6283 0.222237 19.7319C0.389969 19.9411 0.633934 20.0751 0.900462 20.1044C1.16699 20.1337 1.43425 20.056 1.64344 19.8882C1.85264 19.7205 1.98663 19.4765 2.01595 19.21C2.23662 17.2455 3.17333 15.4312 4.64711 14.1137C6.12089 12.7962 8.02843 12.0679 10.0053 12.0679C11.9821 12.0679 13.8896 12.7962 15.3634 14.1137C16.8372 15.4312 17.7739 17.2455 17.9946 19.21C18.0219 19.4569 18.1397 19.685 18.3253 19.8502C18.5109 20.0153 18.7511 20.1059 18.9995 20.1044H19.11C19.3735 20.0741 19.6142 19.9409 19.7799 19.7338C19.9455 19.5268 20.0226 19.2626 19.9944 18.999C19.7929 17.1862 19.1019 15.4625 17.9954 14.0126C16.8889 12.5627 15.4087 11.4413 13.7135 10.7685ZM9.98515 10.055C9.19012 10.055 8.41293 9.8192 7.75189 9.37751C7.09084 8.93581 6.57561 8.30801 6.27136 7.57349C5.96712 6.83897 5.88751 6.03073 6.04262 5.25097C6.19772 4.47121 6.58057 3.75495 7.14274 3.19278C7.70492 2.6306 8.42117 2.24775 9.20093 2.09265C9.98069 1.93755 10.7889 2.01715 11.5235 2.3214C12.258 2.62565 12.8858 3.14087 13.3275 3.80192C13.7692 4.46297 14.0049 5.24015 14.0049 6.03519C14.0049 7.1013 13.5814 8.12374 12.8276 8.8776C12.0737 9.63145 11.0513 10.055 9.98515 10.055Z" fill="white"/>
</svg>
